<svg id="visual" viewBox="0 0 1920 1080" width="1920" height="1080" xmlns="http://www.w3.org/2000/svg" xmlns:xlink="http://www.w3.org/1999/xlink" version="1.1"><rect x="0" y="0" width="1920" height="1080" fill="#fafafa"></rect><defs><linearGradient id="grad1_0" x1="43.8%" y1="0%" x2="100%" y2="100%"><stop offset="14.444444444444446%" stop-color="#fafafa" stop-opacity="1"></stop><stop offset="85.55555555555554%" stop-color="#fafafa" stop-opacity="1"></stop></linearGradient></defs><defs><linearGradient id="grad2_0" x1="0%" y1="0%" x2="56.3%" y2="100%"><stop offset="14.444444444444446%" stop-color="#fafafa" stop-opacity="1"></stop><stop offset="85.55555555555554%" stop-color="#fafafa" stop-opacity="1"></stop></linearGradient></defs><g transform="translate(1920, 0)"><path d="M0 550C-122.5 580.7 -245 611.5 -324 561.2C-403 510.9 -438.4 379.5 -472 272.5C-505.6 165.5 -537.3 82.7 -569 0L0 0Z" fill="#02cc58"></path></g><g transform="translate(0, 1080)"><path d="M0 -648C95.3 -596.4 190.5 -544.8 284.5 -492.8C378.5 -440.7 471.1 -388.2 530 -306C588.9 -223.8 613.9 -111.9 639 0L0 0Z" fill="#02cc58"></path></g></svg>