<svg id="visual" viewBox="0 0 960 540" width="960" height="540" xmlns="http://www.w3.org/2000/svg" xmlns:xlink="http://www.w3.org/1999/xlink" version="1.1"><rect x="0" y="0" width="960" height="540" fill="#fafafa"></rect><defs><linearGradient id="grad1_0" x1="43.8%" y1="100%" x2="100%" y2="0%"><stop offset="14.444444444444446%" stop-color="#fafafa" stop-opacity="1"></stop><stop offset="85.55555555555554%" stop-color="#fafafa" stop-opacity="1"></stop></linearGradient></defs><defs><linearGradient id="grad2_0" x1="0%" y1="100%" x2="56.3%" y2="0%"><stop offset="14.444444444444446%" stop-color="#fafafa" stop-opacity="1"></stop><stop offset="85.55555555555554%" stop-color="#fafafa" stop-opacity="1"></stop></linearGradient></defs><g transform="translate(960, 540)"><path d="M-316 0C-317.3 -34.1 -318.5 -68.2 -308.1 -100.1C-297.8 -132.1 -275.7 -161.9 -250 -181.6C-224.2 -201.4 -194.8 -211.1 -169.9 -233.8C-145 -256.5 -124.6 -292.1 -97 -298.6C-69.5 -305.2 -34.7 -282.6 0 -260L0 0Z" fill="#02cc58"></path></g><g transform="translate(0, 0)"><path d="M313 0C296.9 29.7 280.9 59.4 265.3 86.2C249.8 113 234.8 136.9 217.6 158.1C200.5 179.3 181.3 197.7 162.2 223.3C143.2 248.9 124.3 281.6 97.3 299.6C70.3 317.6 35.2 320.8 0 324L0 0Z" fill="#02cc58"></path></g></svg>