<svg id="visual" viewBox="0 0 960 540" width="960" height="540" xmlns="http://www.w3.org/2000/svg" xmlns:xlink="http://www.w3.org/1999/xlink" version="1.1"><rect x="0" y="0" width="960" height="540" fill="#fafafa"></rect><defs><linearGradient id="grad1_0" x1="43.8%" y1="0%" x2="100%" y2="100%"><stop offset="14.444444444444446%" stop-color="#fafafa" stop-opacity="1"></stop><stop offset="85.55555555555554%" stop-color="#fafafa" stop-opacity="1"></stop></linearGradient></defs><defs><linearGradient id="grad2_0" x1="0%" y1="0%" x2="56.3%" y2="100%"><stop offset="14.444444444444446%" stop-color="#fafafa" stop-opacity="1"></stop><stop offset="85.55555555555554%" stop-color="#fafafa" stop-opacity="1"></stop></linearGradient></defs><g transform="translate(960, 0)"><path d="M0 264C-42.1 253.7 -84.2 243.3 -131.5 227.8C-178.8 212.2 -231.2 191.3 -264.1 152.5C-297.1 113.7 -310.5 56.8 -324 0L0 0Z" fill="#02cc58"></path></g><g transform="translate(0, 540)"><path d="M0 -295C54.7 -291.8 109.4 -288.6 152.5 -264.1C195.6 -239.7 227.1 -194.1 253.7 -146.5C280.4 -98.9 302.2 -49.5 324 0L0 0Z" fill="#02cc58"></path></g></svg>