<svg id="visual" viewBox="0 0 1920 3000" width="1920" height="3000" xmlns="http://www.w3.org/2000/svg" xmlns:xlink="http://www.w3.org/1999/xlink" version="1.1"><rect width="1920" height="3000" fill="#ffffff"></rect><g><g transform="translate(1280 2460)"><path d="M0 -113.2L98 -56.6L98 56.6L0 113.2L-98 56.6L-98 -56.6Z" fill="#1eaaa2"></path></g><g transform="translate(642 2573)"><path d="M0 -70L60.6 -35L60.6 35L0 70L-60.6 35L-60.6 -35Z" fill="#1eaaa2"></path></g><g transform="translate(95 791)"><path d="M0 -112L97 -56L97 56L0 112L-97 56L-97 -56Z" fill="#1eaaa2"></path></g><g transform="translate(1177 1513)"><path d="M0 -88L76.2 -44L76.2 44L0 88L-76.2 44L-76.2 -44Z" fill="#1eaaa2"></path></g><g transform="translate(1440 426)"><path d="M0 -89L77.1 -44.5L77.1 44.5L0 89L-77.1 44.5L-77.1 -44.5Z" fill="#1eaaa2"></path></g><g transform="translate(1873 926)"><path d="M0 -81L70.1 -40.5L70.1 40.5L0 81L-70.1 40.5L-70.1 -40.5Z" fill="#1eaaa2"></path></g><g transform="translate(1910 2884)"><path d="M0 -91L78.8 -45.5L78.8 45.5L0 91L-78.8 45.5L-78.8 -45.5Z" fill="#1eaaa2"></path></g><g transform="translate(187 360)"><path d="M0 -80L69.3 -40L69.3 40L0 80L-69.3 40L-69.3 -40Z" fill="#1eaaa2"></path></g><g transform="translate(36 2392)"><path d="M0 -111L96.1 -55.5L96.1 55.5L0 111L-96.1 55.5L-96.1 -55.5Z" fill="#1eaaa2"></path></g><g transform="translate(1900 1571)"><path d="M0 -107L92.7 -53.5L92.7 53.5L0 107L-92.7 53.5L-92.7 -53.5Z" fill="#1eaaa2"></path></g><g transform="translate(1195 954)"><path d="M0 -101L87.5 -50.5L87.5 50.5L0 101L-87.5 50.5L-87.5 -50.5Z" fill="#1eaaa2"></path></g><g transform="translate(1502 2012)"><path d="M0 -102L88.3 -51L88.3 51L0 102L-88.3 51L-88.3 -51Z" fill="#1eaaa2"></path></g><g transform="translate(1010 2720)"><path d="M0 -95L82.3 -47.5L82.3 47.5L0 95L-82.3 47.5L-82.3 -47.5Z" fill="#1eaaa2"></path></g><g transform="translate(1888 2392)"><path d="M0 -91L78.8 -45.5L78.8 45.5L0 91L-78.8 45.5L-78.8 -45.5Z" fill="#1eaaa2"></path></g><g transform="translate(969 846)"><path d="M0 -96L83.1 -48L83.1 48L0 96L-83.1 48L-83.1 -48Z" fill="#1eaaa2"></path></g><g transform="translate(78 2670)"><path d="M0 -109L94.4 -54.5L94.4 54.5L0 109L-94.4 54.5L-94.4 -54.5Z" fill="#1eaaa2"></path></g><g transform="translate(402 1751)"><path d="M0 -96L83.1 -48L83.1 48L0 96L-83.1 48L-83.1 -48Z" fill="#1eaaa2"></path></g></g></svg>